<svg width="619" height="266" viewBox="0 0 619 266" fill="none" xmlns="http://www.w3.org/2000/svg">
<g clip-path="url(#clip0)">
<path d="M135.867 148.395C135.872 147.579 135.71 146.77 135.39 146.019C135.07 145.268 134.599 144.592 134.007 144.032C133.415 143.472 132.714 143.04 131.948 142.764C131.182 142.488 130.368 142.373 129.556 142.427C128.744 142.481 127.952 142.702 127.229 143.077C126.506 143.452 125.868 143.972 125.354 144.605C124.84 145.239 124.462 145.971 124.244 146.758C124.025 147.544 123.97 148.367 124.083 149.176L107.073 171.523C106.348 172.979 106.066 174.618 106.264 176.234C106.463 177.85 107.132 179.372 108.188 180.608L109.522 182.169L115.644 180.941L122.583 174.799L121.767 167.838L130.338 154.325L130.327 154.315C131.827 154.219 133.235 153.554 134.264 152.454C135.293 151.355 135.866 149.903 135.867 148.395Z" fill="#FFB9B9"/>
<path d="M18.24 257.647L15.4634 247.301L53.9167 231.635L58.0145 246.903L18.24 257.647Z" fill="#FFB8B8"/>
<path d="M8.95217 262.985L-3.8147e-06 229.627L0.420548 229.514C3.85286 228.587 7.51165 229.066 10.5921 230.845C13.6726 232.624 15.9225 235.558 16.8469 239.001L16.8471 239.002L22.3148 259.376L8.95217 262.985Z" fill="#2F2E41"/>
<path d="M71.2077 255.993L62.5713 249.693L82.6874 213.273L95.4343 222.572L71.2077 255.993Z" fill="#FFB8B8"/>
<path d="M67.3223 266L39.4738 245.682L39.7299 245.329C41.8206 242.445 44.9675 240.512 48.4785 239.955C51.9895 239.399 55.577 240.265 58.4519 242.362L58.4526 242.362L75.4615 254.772L67.3223 266Z" fill="#2F2E41"/>
<path d="M144.623 205.1L122.89 183.919C120.993 182.07 118.494 180.971 115.854 180.823C113.214 180.675 110.609 181.488 108.519 183.113L67.4825 228.85L71.156 234.582L110.338 207.966L136.868 242.772L162.174 230.078L144.623 205.1Z" fill="#2F2E41"/>
<path d="M135.236 209.604L119.318 208.376L107.79 205.572C107.139 204.553 106.193 203.758 105.079 203.293C103.965 202.828 102.736 202.716 101.556 202.971C100.377 203.226 99.3033 203.837 98.4793 204.721C97.6553 205.605 97.1202 206.721 96.9457 207.919C96.7711 209.116 96.9655 210.339 97.5027 211.423C98.04 212.507 98.8945 213.4 99.9518 213.984C101.009 214.567 102.219 214.812 103.419 214.687C104.619 214.561 105.752 214.071 106.667 213.281L106.665 213.29L113.604 216.156L143.399 226.393L147.072 223.526L135.236 209.604Z" fill="#FFB9B9"/>
<path d="M173.602 253.828L164.623 259.561H154.01L104.624 241.134L32.3816 254.237L30.3409 238.677L96.4617 209.604L154.419 228.85L173.602 253.828Z" fill="#2F2E41"/>
<path d="M154.419 154.325C163.21 154.325 170.337 147.175 170.337 138.355C170.337 129.536 163.21 122.386 154.419 122.386C145.628 122.386 138.501 129.536 138.501 138.355C138.501 147.175 145.628 154.325 154.419 154.325Z" fill="#FFB9B9"/>
<path d="M195.605 202.115C195.605 211.753 194.092 221.331 191.12 230.496L189.928 234.173L184.214 260.379L178.092 262.017L173.602 256.285L164.623 249.733L158.092 239.087L152.492 229.726L150.746 226.802L144.623 196.092L121.359 182.988L113.604 181.76L115.236 177.256L122.175 167.838L129.113 167.019L131.154 165.381L132.787 166.2L141.787 169.678L170.965 157.31L175.235 158.01L189.928 170.295C193.684 180.48 195.607 191.254 195.605 202.115Z" fill="#CCCCCC"/>
<path opacity="0.1" d="M191.152 198.549L175.643 208.785L152.493 229.726L150.746 226.802L145.848 202.234H147.072L159.725 178.894L191.152 198.549Z" fill="black"/>
<path d="M159.725 176.437L147.072 199.777L139.726 207.966L133.195 209.604L150.746 228.85L175.643 206.329L191.152 196.091L159.725 176.437Z" fill="#CCCCCC"/>
<path d="M142.038 126.481L140.313 127.147C140.052 126.969 139.827 126.741 139.653 126.477C139.479 126.212 139.359 125.915 139.299 125.604C139.239 125.292 139.241 124.972 139.305 124.661C139.368 124.351 139.492 124.055 139.67 123.793C139.679 123.779 139.688 123.765 139.698 123.752L136.511 123.602C138.557 120.868 141.158 118.602 144.142 116.952C147.127 115.302 150.426 114.307 153.823 114.033C157.219 113.758 160.635 114.21 163.844 115.359C167.054 116.508 169.983 118.327 172.439 120.697C172.584 120.195 174.166 121.171 174.812 122.16C175.029 121.344 176.512 125.288 177.036 128.076C177.279 127.148 178.213 128.646 177.395 130.084C177.913 130.008 178.148 131.339 177.746 132.08C178.313 131.813 178.218 133.401 177.603 134.462C178.412 134.39 177.534 151.111 165.39 149.892C164.545 145.995 164.783 146.238 163.788 141.227C163.324 140.733 162.817 140.284 162.31 139.835L159.571 137.409C156.385 134.587 153.486 131.105 149.242 130.051C146.325 129.326 144.481 129.162 146.071 125.865C144.634 126.466 143.293 127.36 141.844 127.919C141.864 127.458 142.066 126.942 142.038 126.481Z" fill="#2F2E41"/>
<path d="M162.378 143.064C163.956 143.064 165.235 141.781 165.235 140.198C165.235 138.615 163.956 137.332 162.378 137.332C160.8 137.332 159.521 138.615 159.521 140.198C159.521 141.781 160.8 143.064 162.378 143.064Z" fill="#FFB9B9"/>
<path d="M29.1427 72.5014L28.2708 85.6358L41.3628 86.5105L42.2347 73.3761L29.1427 72.5014Z" fill="#E6E6E6"/>
<path d="M20.6958 79.4757L36.5932 80.5378L35.5345 96.4868L19.6371 95.4247L20.6958 79.4757ZM35.856 81.1851L21.3409 80.2153L20.3743 94.7774L34.8893 95.7472L35.856 81.1851Z" fill="#CCCCCC"/>
<path d="M103.128 33.5537L90.2995 36.319L93.0559 49.1889L105.884 46.4235L103.128 33.5537Z" fill="#E6E6E6"/>
<path d="M94.1238 27.3201L97.4708 42.9477L81.8937 46.3056L78.5467 30.678L94.1238 27.3201ZM96.648 42.4142L93.592 28.1455L79.3695 31.2114L82.4255 45.4801L96.648 42.4142Z" fill="#CCCCCC"/>
<path d="M89.6483 95.3592L80.0721 104.358L89.0419 113.965L98.6181 104.966L89.6483 95.3592Z" fill="#E6E6E6"/>
<path d="M99.3067 94.013L87.6784 104.94L76.7866 93.2742L88.4148 82.347L99.3067 94.013ZM87.7104 103.958L98.3275 93.9809L88.3828 83.3293L77.7657 93.3064L87.7104 103.958Z" fill="#CCCCCC"/>
<path d="M584.873 0H196.659C195.256 -1.59986e-06 193.866 0.277277 192.57 0.816004C191.273 1.35473 190.095 2.14435 189.103 3.13979C188.111 4.13523 187.324 5.31699 186.787 6.61759C186.25 7.9182 185.974 9.31217 185.974 10.7199V227.727C185.974 229.135 186.25 230.529 186.787 231.83C187.324 233.13 188.111 234.312 189.103 235.308C190.095 236.303 191.273 237.093 192.57 237.631C193.866 238.17 195.256 238.447 196.659 238.447H584.873C587.707 238.447 590.424 237.318 592.428 235.308C594.432 233.297 595.558 230.571 595.558 227.727V10.7199C595.558 7.87683 594.432 5.15018 592.428 3.1398C590.424 1.12942 587.707 1.61554e-06 584.873 0Z" fill="#3F3D56"/>
<path d="M581.232 18.9451H200.299V234.528H581.232V18.9451Z" fill="white"/>
<path d="M390.44 13.0656C392.598 13.0656 394.347 11.3107 394.347 9.14593C394.347 6.98116 392.598 5.22626 390.44 5.22626C388.282 5.22626 386.533 6.98116 386.533 9.14593C386.533 11.3107 388.282 13.0656 390.44 13.0656Z" fill="white"/>
<path d="M472.292 234.528H200.299V18.9455L472.292 234.528Z" fill="#F2F2F2"/>
<path d="M259.904 218.396C280.127 218.396 296.52 201.949 296.52 181.66C296.52 161.372 280.127 144.925 259.904 144.925C239.681 144.925 223.287 161.372 223.287 181.66C223.287 201.949 239.681 218.396 259.904 218.396Z" fill="#1A6FEF"/>
<path d="M268.055 209.27C259.047 209.27 250.241 206.59 242.75 201.569C235.26 196.548 229.422 189.412 225.975 181.062C222.528 172.712 221.626 163.525 223.383 154.661C225.14 145.797 229.478 137.655 235.848 131.264C242.218 124.873 250.334 120.521 259.169 118.758C268.005 116.995 277.163 117.9 285.485 121.359C293.808 124.817 300.922 130.674 305.926 138.188C310.931 145.703 313.602 154.538 313.602 163.575C313.602 169.576 312.424 175.518 310.135 181.062C307.846 186.606 304.491 191.643 300.262 195.887C296.032 200.13 291.011 203.496 285.485 205.792C279.959 208.088 274.036 209.27 268.055 209.27ZM268.055 118.477C259.164 118.477 250.473 121.122 243.081 126.078C235.689 131.033 229.927 138.077 226.525 146.317C223.123 154.558 222.232 163.625 223.967 172.373C225.701 181.122 229.983 189.157 236.269 195.464C242.556 201.771 250.566 206.066 259.285 207.807C268.005 209.547 277.044 208.654 285.257 205.24C293.471 201.827 300.492 196.047 305.431 188.63C310.371 181.214 313.007 172.495 313.007 163.575C313.007 157.653 311.844 151.789 309.585 146.317C307.326 140.846 304.015 135.874 299.841 131.686C295.667 127.499 290.711 124.177 285.257 121.91C279.804 119.644 273.958 118.478 268.055 118.478L268.055 118.477Z" fill="#3F3D56"/>
<path d="M493.047 130.947H457.464V138.406H493.047V130.947Z" fill="#3F3D56"/>
<path d="M526.713 90.5345H423.799V93.7314H526.713V90.5345Z" fill="#3F3D56"/>
<path d="M526.713 103.095H423.799V106.292H526.713V103.095Z" fill="#3F3D56"/>
<path d="M526.713 115.655H423.799V118.852H526.713V115.655Z" fill="#3F3D56"/>
<path d="M554.281 31.8468H539.411V46.7657H554.281V31.8468Z" fill="#1A6FEF"/>
<path d="M561.185 53.6923H543.128V35.5765H561.185V53.6923ZM543.913 52.9047H560.4V36.3642H543.913L543.913 52.9047Z" fill="#CCCCCC"/>
<path d="M606.254 230.608H569.077V227.921C569.077 227.851 569.063 227.782 569.037 227.717C569.01 227.652 568.971 227.593 568.922 227.544C568.872 227.495 568.814 227.455 568.749 227.429C568.685 227.402 568.616 227.388 568.546 227.388H555.8C555.73 227.388 555.661 227.402 555.597 227.429C555.532 227.455 555.474 227.495 555.424 227.544C555.375 227.593 555.336 227.652 555.309 227.717C555.282 227.781 555.269 227.851 555.269 227.921V230.608H547.302V227.921C547.302 227.851 547.289 227.782 547.262 227.717C547.235 227.652 547.196 227.593 547.147 227.544C547.097 227.495 547.039 227.455 546.974 227.429C546.91 227.402 546.841 227.388 546.771 227.388H534.025C533.955 227.388 533.886 227.402 533.822 227.429C533.757 227.455 533.699 227.495 533.649 227.544C533.6 227.593 533.561 227.652 533.534 227.717C533.508 227.782 533.494 227.851 533.494 227.921V230.608H525.528V227.921C525.528 227.851 525.514 227.782 525.487 227.717C525.46 227.652 525.421 227.593 525.372 227.544C525.323 227.495 525.264 227.455 525.2 227.429C525.135 227.402 525.066 227.388 524.996 227.388H512.25C512.18 227.388 512.111 227.402 512.047 227.429C511.982 227.455 511.924 227.495 511.875 227.544C511.825 227.593 511.786 227.652 511.759 227.717C511.733 227.782 511.719 227.851 511.719 227.921V230.608H503.753V227.921C503.753 227.851 503.739 227.782 503.712 227.717C503.686 227.652 503.646 227.593 503.597 227.544C503.548 227.495 503.489 227.455 503.425 227.429C503.36 227.402 503.291 227.388 503.222 227.388H490.475C490.406 227.388 490.336 227.402 490.272 227.429C490.208 227.455 490.149 227.495 490.1 227.544C490.05 227.593 490.011 227.652 489.985 227.717C489.958 227.781 489.944 227.851 489.944 227.921V230.608H481.978V227.921C481.978 227.851 481.964 227.782 481.937 227.717C481.911 227.652 481.872 227.593 481.822 227.544C481.773 227.495 481.714 227.455 481.65 227.429C481.585 227.402 481.516 227.388 481.447 227.388H468.7C468.631 227.388 468.562 227.402 468.497 227.429C468.433 227.455 468.374 227.495 468.325 227.544C468.276 227.593 468.236 227.652 468.21 227.717C468.183 227.782 468.169 227.851 468.169 227.921V230.608H460.203V227.921C460.203 227.851 460.189 227.782 460.162 227.717C460.136 227.652 460.097 227.593 460.047 227.544C459.998 227.495 459.939 227.455 459.875 227.429C459.811 227.402 459.742 227.388 459.672 227.388H446.926C446.856 227.388 446.787 227.402 446.722 227.429C446.658 227.455 446.599 227.495 446.55 227.544C446.501 227.593 446.462 227.652 446.435 227.717C446.408 227.782 446.394 227.851 446.394 227.921V230.608H438.428V227.921C438.428 227.851 438.414 227.782 438.388 227.717C438.361 227.652 438.322 227.593 438.272 227.544C438.223 227.495 438.165 227.455 438.1 227.429C438.036 227.402 437.967 227.388 437.897 227.388H338.051C337.982 227.388 337.912 227.402 337.848 227.429C337.784 227.455 337.725 227.495 337.676 227.544C337.626 227.593 337.587 227.652 337.561 227.717C337.534 227.782 337.52 227.851 337.52 227.921V230.608H329.554V227.921C329.554 227.851 329.54 227.782 329.513 227.717C329.487 227.652 329.447 227.593 329.398 227.544C329.349 227.495 329.29 227.455 329.226 227.429C329.161 227.402 329.092 227.388 329.023 227.388H316.276C316.207 227.388 316.138 227.402 316.073 227.429C316.009 227.455 315.95 227.495 315.901 227.544C315.852 227.593 315.812 227.652 315.786 227.717C315.759 227.782 315.745 227.851 315.745 227.921V230.608H307.779V227.921C307.779 227.851 307.765 227.782 307.738 227.717C307.712 227.652 307.673 227.593 307.623 227.544C307.574 227.495 307.516 227.455 307.451 227.429C307.387 227.402 307.318 227.388 307.248 227.388H294.502C294.432 227.388 294.363 227.402 294.298 227.429C294.234 227.455 294.175 227.495 294.126 227.544C294.077 227.593 294.038 227.652 294.011 227.717C293.984 227.782 293.97 227.851 293.97 227.921V230.608H286.004V227.921C286.004 227.851 285.99 227.782 285.964 227.717C285.937 227.652 285.898 227.593 285.848 227.544C285.799 227.495 285.741 227.455 285.676 227.429C285.612 227.402 285.543 227.388 285.473 227.388H272.727C272.657 227.388 272.588 227.402 272.523 227.429C272.459 227.455 272.4 227.495 272.351 227.544C272.302 227.593 272.263 227.652 272.236 227.717C272.209 227.782 272.196 227.851 272.196 227.921V230.608H264.229V227.921C264.229 227.851 264.215 227.782 264.189 227.717C264.162 227.652 264.123 227.593 264.074 227.544C264.024 227.495 263.966 227.455 263.901 227.429C263.837 227.402 263.768 227.388 263.698 227.388H250.952C250.882 227.388 250.813 227.402 250.749 227.429C250.684 227.455 250.626 227.495 250.576 227.544C250.527 227.593 250.488 227.652 250.461 227.717C250.434 227.782 250.421 227.851 250.421 227.921V230.608H242.454V227.921C242.454 227.851 242.441 227.782 242.414 227.717C242.387 227.652 242.348 227.593 242.299 227.544C242.249 227.495 242.191 227.455 242.126 227.429C242.062 227.402 241.993 227.388 241.923 227.388H229.177C229.036 227.388 228.901 227.444 228.801 227.544C228.702 227.644 228.646 227.779 228.646 227.921V230.608H220.679V227.921C220.679 227.851 220.666 227.782 220.639 227.717C220.612 227.652 220.573 227.593 220.524 227.544C220.475 227.495 220.416 227.455 220.352 227.429C220.287 227.402 220.218 227.388 220.148 227.388H207.402C207.261 227.388 207.126 227.444 207.027 227.544C206.927 227.644 206.871 227.779 206.871 227.921V230.608H182.441C179.06 230.608 175.818 231.955 173.428 234.353C171.037 236.752 169.694 240.004 169.694 243.396V249.178C169.694 252.569 171.037 255.822 173.428 258.22C175.818 260.618 179.06 261.965 182.441 261.965H606.254C609.634 261.965 612.876 260.618 615.267 258.22C617.657 255.822 619 252.569 619 249.178V243.396C619 241.716 618.67 240.053 618.03 238.502C617.389 236.951 616.45 235.541 615.267 234.353C614.083 233.166 612.678 232.224 611.132 231.581C609.585 230.939 607.928 230.608 606.254 230.608Z" fill="#3F3D56"/>
</g>
<defs>
<clipPath id="clip0">
<rect width="619" height="266" fill="white"/>
</clipPath>
</defs>
</svg>
