<svg width="24" height="24" viewBox="0 0 24 24" fill="none" xmlns="http://www.w3.org/2000/svg">
<path d="M22.3727 12.6677L21.2313 9.29041C21.2318 9.29193 21.232 9.29351 21.2325 9.29503C21.2319 9.29327 21.2316 9.29151 21.2311 9.28974C21.2311 9.28962 21.2311 9.28956 21.2311 9.28944C21.2311 9.28938 21.2311 9.28932 21.2311 9.28932L18.9652 2.58716C18.8412 2.2341 18.5002 1.99714 18.1092 2.00006C17.717 2.002 17.3853 2.2344 17.264 2.59232L15.1133 8.95394H8.32682L6.17199 2.5919C6.05083 2.23428 5.71907 2.00194 5.32699 2C5.3254 2 5.32389 2 5.32224 2C4.93616 2 4.59442 2.2355 4.46914 2.59251L2.20946 9.28865L2.20914 9.2895C2.20914 9.28956 2.20914 9.28962 2.20914 9.28968C2.20858 9.29138 2.20832 9.29309 2.20775 9.29479C2.20826 9.29327 2.20845 9.29169 2.20896 9.29017L1.06337 12.6677C0.891041 13.1776 1.07804 13.7317 1.52881 14.0468L11.4205 20.9517C11.422 20.9528 11.4236 20.9534 11.4251 20.9544C11.4293 20.9573 11.4334 20.9603 11.4377 20.963C11.4337 20.9604 11.4299 20.9576 11.4259 20.9549C11.4259 20.9549 11.4259 20.9548 11.4258 20.9548C11.4264 20.9553 11.4272 20.9556 11.4279 20.956C11.4285 20.9564 11.429 20.9566 11.4296 20.957C11.4297 20.9571 11.4297 20.9571 11.4299 20.9572C11.4452 20.9674 11.461 20.9767 11.4775 20.9853C11.4798 20.9865 11.4818 20.9881 11.4841 20.9892C11.4841 20.9892 11.4841 20.9893 11.4842 20.9893C11.4856 20.9899 11.4868 20.9908 11.4882 20.9915C11.4893 20.9919 11.4904 20.9922 11.4915 20.9927C11.4922 20.9931 11.493 20.9933 11.4938 20.9936C11.4956 20.9945 11.4977 20.995 11.4995 20.9959C11.5081 20.9999 11.5171 21.0031 11.526 21.0066C11.5343 21.0099 11.5423 21.0137 11.5508 21.0165C11.5512 21.0167 11.5515 21.0168 11.5519 21.017C11.5532 21.0175 11.5545 21.0181 11.556 21.0186C11.5577 21.0192 11.5594 21.0199 11.5612 21.0204C11.5619 21.0206 11.5626 21.0207 11.5633 21.0209C11.5655 21.0216 11.5679 21.0219 11.5701 21.0225C11.571 21.0227 11.5719 21.0229 11.5728 21.0231C11.5847 21.0266 11.597 21.0291 11.6093 21.0317C11.6141 21.0327 11.6187 21.0342 11.6236 21.035C11.6243 21.0351 11.6249 21.0354 11.6257 21.0355C11.6272 21.0358 11.6287 21.0364 11.6303 21.0366C11.6329 21.037 11.6355 21.0378 11.6381 21.0382C11.6402 21.0385 11.6423 21.0384 11.6444 21.0387C11.6448 21.0387 11.6451 21.0387 11.6455 21.0387C11.6456 21.0387 11.6457 21.0387 11.6458 21.0387C11.6692 21.0419 11.6928 21.0442 11.7169 21.0442C11.717 21.0442 11.7172 21.0442 11.7174 21.0442C11.7174 21.0442 11.7175 21.0442 11.7175 21.0442H11.7175C11.7176 21.0442 11.7177 21.0442 11.7177 21.0442C11.7419 21.0442 11.7655 21.0419 11.7889 21.0387C11.789 21.0387 11.7891 21.0387 11.7892 21.0387C11.7896 21.0387 11.7899 21.0387 11.7903 21.0387C11.7924 21.0384 11.7946 21.0385 11.7967 21.0382C11.7994 21.0377 11.8019 21.037 11.8046 21.0366C11.8061 21.0364 11.8076 21.0358 11.8092 21.0355C11.8099 21.0354 11.8105 21.0351 11.8112 21.035C11.8161 21.0341 11.8209 21.0326 11.8258 21.0316C11.8379 21.0291 11.85 21.0266 11.8619 21.0232C11.8627 21.0229 11.8635 21.0229 11.8643 21.0226C11.8667 21.022 11.8691 21.0216 11.8714 21.021C11.8721 21.0207 11.8729 21.0207 11.8736 21.0205C11.8754 21.0199 11.8772 21.0192 11.8789 21.0186C11.8803 21.0181 11.8816 21.0175 11.883 21.017C11.8834 21.0168 11.8837 21.0167 11.884 21.0165C11.893 21.0135 11.9015 21.0095 11.9103 21.006C11.9185 21.0028 11.9268 20.9998 11.9348 20.9962C11.9367 20.9953 11.9388 20.9947 11.9407 20.9938C11.9415 20.9935 11.9424 20.9932 11.9431 20.9929C11.9442 20.9924 11.9453 20.9921 11.9464 20.9915C11.9479 20.9908 11.9492 20.9899 11.9506 20.9893C11.9506 20.9893 11.9507 20.9893 11.9507 20.9892C11.953 20.9881 11.9551 20.9864 11.9575 20.9852C11.9738 20.9767 11.9896 20.9674 12.0048 20.9572C12.006 20.9565 12.0074 20.9558 12.0087 20.955C12.009 20.9548 12.0094 20.9546 12.0097 20.9544C12.0112 20.9534 12.0129 20.9527 12.0143 20.9517L21.9075 14.0466C22.358 13.7317 22.5451 13.1776 22.3727 12.6677ZM18.1154 3.21503L20.0556 8.95394H16.1752L18.1154 3.21503ZM19.7158 9.92436L18.9241 10.899L13.085 18.087L15.8471 9.92436H19.7158ZM11.2371 20.7091C11.2376 20.7106 11.2384 20.7119 11.2389 20.7134C11.2384 20.7119 11.2376 20.7106 11.2371 20.7091ZM10.3512 18.0875L3.72399 9.92436H7.59299L10.3512 18.0875ZM5.32085 3.21497L7.26465 8.95394H3.38426L5.32085 3.21497ZM2.12276 13.2618C2.02689 13.1948 1.98717 13.0765 2.02392 12.9679L2.8755 10.4571L9.11536 18.143L2.12276 13.2618ZM11.4031 20.9389C11.4012 20.9374 11.3993 20.9357 11.3974 20.9342C11.397 20.9339 11.3966 20.9334 11.3962 20.9331C11.3924 20.9301 11.3886 20.927 11.385 20.9238C11.3778 20.9178 11.3707 20.9117 11.3639 20.9052C11.3645 20.9057 11.3651 20.9061 11.3657 20.9066C11.3664 20.9073 11.3673 20.9079 11.368 20.9085C11.3825 20.9218 11.3977 20.9343 11.4137 20.9459C11.4139 20.946 11.414 20.9462 11.4142 20.9463C11.4149 20.9469 11.4156 20.9475 11.4163 20.9481C11.412 20.9451 11.4074 20.9422 11.4031 20.9389ZM11.7177 18.9888L10.0947 14.1853L8.65497 9.92436H14.785L11.7177 18.9888ZM12.0499 20.9238C12.0461 20.927 12.0425 20.9301 12.0386 20.9332C12.0382 20.9335 12.0377 20.934 12.0373 20.9343C12.0353 20.9359 12.0335 20.9375 12.0316 20.939C12.0274 20.9422 12.0229 20.9452 12.0185 20.9483C12.0193 20.9477 12.0199 20.947 12.0207 20.9465C12.0208 20.9464 12.021 20.9462 12.0211 20.9461C12.037 20.9346 12.0522 20.9222 12.0666 20.9089C12.0671 20.9083 12.0678 20.9079 12.0684 20.9074C12.0692 20.9068 12.07 20.9062 12.0707 20.9055C12.064 20.9118 12.0569 20.9179 12.0499 20.9238ZM21.3136 13.2616L14.322 18.1415L20.5639 10.4577L21.4121 12.9674C21.4489 13.0765 21.4093 13.1948 21.3136 13.2616Z" fill="#78797A"/>
</svg>
