<svg width="53" height="53" viewBox="0 0 53 53" fill="none" xmlns="http://www.w3.org/2000/svg">
<path fill-rule="evenodd" clip-rule="evenodd" d="M9.14388 38.8344C6.41138 34.9343 5.07207 30.2276 5.34194 25.4732L1.34836 25.2466C1.02757 30.8983 2.61966 36.4934 5.86792 41.1296C9.11618 45.7658 13.8313 49.1729 19.2528 50.8014C24.6744 52.4299 30.4865 52.1849 35.7518 50.106C41.0171 48.027 45.4288 44.2353 48.2754 39.3422C51.122 34.4491 52.2376 28.7399 51.4424 23.1351C50.6471 17.5304 47.9873 12.3569 43.8919 8.44876C39.7965 4.54066 34.5042 2.12581 28.8684 1.59361C25.4974 1.27528 22.121 1.64161 18.9343 2.64493C18.1005 1.96029 17.0334 1.54933 15.8703 1.54933C13.2018 1.54933 11.0386 3.71255 11.0386 6.38102C11.0386 9.0495 13.2018 11.2127 15.8703 11.2127C18.5387 11.2127 20.702 9.0495 20.702 6.38102C20.702 6.3509 20.7017 6.32084 20.7011 6.29085C23.2142 5.57593 25.8552 5.32686 28.4924 5.57589C33.2333 6.02359 37.6853 8.05501 41.1305 11.3426C44.5756 14.6302 46.813 18.9823 47.482 23.6971C48.151 28.4119 47.2125 33.2146 44.8179 37.3308C42.4233 41.447 38.7121 44.6366 34.2828 46.3855C29.8535 48.1343 24.9643 48.3404 20.4035 46.9705C15.8428 45.6006 11.8764 42.7345 9.14388 38.8344Z" fill="#1A6FEF"/>
<path d="M22.946 30.606H17.942L17.114 33H14.468L18.986 20.418H21.92L26.438 33H23.774L22.946 30.606ZM22.262 28.59L20.444 23.334L18.626 28.59H22.262ZM27.4788 27.978C27.4788 26.97 27.6768 26.076 28.0728 25.296C28.4808 24.516 29.0268 23.916 29.7108 23.496C30.4068 23.076 31.1808 22.866 32.0328 22.866C32.7768 22.866 33.4248 23.016 33.9768 23.316C34.5408 23.616 34.9908 23.994 35.3268 24.45V23.028H37.8648V33H35.3268V31.542C35.0028 32.01 34.5528 32.4 33.9768 32.712C33.4128 33.012 32.7588 33.162 32.0148 33.162C31.1748 33.162 30.4068 32.946 29.7108 32.514C29.0268 32.082 28.4808 31.476 28.0728 30.696C27.6768 29.904 27.4788 28.998 27.4788 27.978ZM35.3268 28.014C35.3268 27.402 35.2068 26.88 34.9668 26.448C34.7268 26.004 34.4028 25.668 33.9948 25.44C33.5868 25.2 33.1488 25.08 32.6808 25.08C32.2128 25.08 31.7808 25.194 31.3848 25.422C30.9888 25.65 30.6648 25.986 30.4128 26.43C30.1728 26.862 30.0528 27.378 30.0528 27.978C30.0528 28.578 30.1728 29.106 30.4128 29.562C30.6648 30.006 30.9888 30.348 31.3848 30.588C31.7928 30.828 32.2248 30.948 32.6808 30.948C33.1488 30.948 33.5868 30.834 33.9948 30.606C34.4028 30.366 34.7268 30.03 34.9668 29.598C35.2068 29.154 35.3268 28.626 35.3268 28.014Z" fill="#F0F0F0"/>
</svg>
