<svg width="66" height="66" viewBox="0 0 66 66" fill="none" xmlns="http://www.w3.org/2000/svg">
<circle cx="33" cy="33" r="33" fill="#333333"/>
<path fill-rule="evenodd" clip-rule="evenodd" d="M15.836 45.3524C13.1035 41.4524 11.7642 36.7456 12.0341 31.9912L8.0405 31.7646C7.7197 37.4163 9.3118 43.0115 12.5601 47.6476C15.8083 52.2838 20.5234 55.6909 25.945 57.3194C31.3666 58.9479 37.1786 58.7029 42.4439 56.624C47.7092 54.545 52.1209 50.7533 54.9675 45.8602C57.8141 40.9671 58.9297 35.2579 58.1345 29.6532C57.3392 24.0484 54.6795 18.8749 50.5841 14.9668C46.4887 11.0587 41.1964 8.64381 35.5606 8.11161C32.1896 7.79328 28.8132 8.15961 25.6264 9.16294C24.7926 8.4783 23.7255 8.06733 22.5624 8.06733C19.8939 8.06733 17.7307 10.2306 17.7307 12.899C17.7307 15.5675 19.8939 17.7307 22.5624 17.7307C25.2309 17.7307 27.3941 15.5675 27.3941 12.899C27.3941 12.8689 27.3938 12.8388 27.3933 12.8089C29.9063 12.0939 32.5474 11.8449 35.1845 12.0939C39.9255 12.5416 44.3775 14.573 47.8226 17.8606C51.2677 21.1482 53.5052 25.5003 54.1742 30.2151C54.8431 34.9299 53.9046 39.7326 51.51 43.8488C49.1154 47.965 45.4042 51.1546 40.9749 52.9035C36.5456 54.6523 31.6564 54.8584 27.0957 53.4885C22.5349 52.1186 18.5685 49.2525 15.836 45.3524Z" fill="#1A6FEF"/>
<path d="M29.6381 37.124H24.6341L23.8061 39.518H21.1601L25.6781 26.936H28.6121L33.1301 39.518H30.4661L29.6381 37.124ZM28.9541 35.108L27.1361 29.852L25.3181 35.108H28.9541ZM34.1709 34.496C34.1709 33.488 34.3689 32.594 34.7649 31.814C35.1729 31.034 35.7189 30.434 36.4029 30.014C37.0989 29.594 37.8729 29.384 38.7249 29.384C39.4689 29.384 40.1169 29.534 40.6689 29.834C41.2329 30.134 41.6829 30.512 42.0189 30.968V29.546H44.5569V39.518H42.0189V38.06C41.6949 38.528 41.2449 38.918 40.6689 39.23C40.1049 39.53 39.4509 39.68 38.7069 39.68C37.8669 39.68 37.0989 39.464 36.4029 39.032C35.7189 38.6 35.1729 37.994 34.7649 37.214C34.3689 36.422 34.1709 35.516 34.1709 34.496ZM42.0189 34.532C42.0189 33.92 41.8989 33.398 41.6589 32.966C41.4189 32.522 41.0949 32.186 40.6869 31.958C40.2789 31.718 39.8409 31.598 39.3729 31.598C38.9049 31.598 38.4729 31.712 38.0769 31.94C37.6809 32.168 37.3569 32.504 37.1049 32.948C36.8649 33.38 36.7449 33.896 36.7449 34.496C36.7449 35.096 36.8649 35.624 37.1049 36.08C37.3569 36.524 37.6809 36.866 38.0769 37.106C38.4849 37.346 38.9169 37.466 39.3729 37.466C39.8409 37.466 40.2789 37.352 40.6869 37.124C41.0949 36.884 41.4189 36.548 41.6589 36.116C41.8989 35.672 42.0189 35.144 42.0189 34.532Z" fill="#F0F0F0"/>
</svg>
